<?xml version="1.0" encoding="iso-8859-1"?>
<!-- Generator: Adobe Illustrator 19.0.0, SVG Export Plug-In . SVG Version: 6.00 Build 0)  -->
<svg version="1.1" id="Capa_1" xmlns="http://www.w3.org/2000/svg" xmlns:xlink="http://www.w3.org/1999/xlink" x="0px" y="0px"
	 viewBox="0 0 512 512" style="enable-background:new 0 0 512 512;" xml:space="preserve">
<path style="fill:#FF993B;" d="M375.321,512h-326c-2.209,0-4-1.791-4-4V4c0-2.209,1.791-4,4-4h233.236
	c36.227,36.227,56.538,56.538,92.764,92.764V512z"/>
<path style="fill:#FF7B48;" d="M282.508,0h-30.938c36.246,36.208,56.567,56.508,92.813,92.716V512h30.938V92.716
	C339.075,56.508,318.754,36.208,282.508,0z"/>
<path style="fill:#7A666C;" d="M45.321,51.509V4c0-2.209,1.791-4,4-4h233.187L295.5,51.509H45.321z"/>
<path style="fill:#6A545A;" d="M282.508,0l92.813,92.716h-88.813c-2.209,0-4-1.791-4-4V0z"/>
<path style="fill:#FF5A51;" d="M45.321,51.509V4c0-2.209,1.791-4,4-4h111.5v51.509H45.321z"/>
<g>
	<circle style="fill:#FFBD2A;" cx="75.37" cy="25.755" r="7.726"/>
	<circle style="fill:#FFBD2A;" cx="133.06" cy="25.755" r="7.726"/>
	<circle style="fill:#FFBD2A;" cx="104.21" cy="25.755" r="7.726"/>
</g>
<g>
	<path style="fill:#A85759;" d="M309.213,302.646c-1.583,0-3.177-0.498-4.534-1.529c-0.35-0.265-36.893-27.315-94.444-27.315
		c-57.54,0-93.91,27.041-94.271,27.314c-3.299,2.496-8.001,1.858-10.504-1.435c-2.504-3.292-1.876-7.984,1.411-10.495
		c1.624-1.241,40.503-30.385,103.363-30.385c62.85,0,101.892,29.134,103.523,30.374c3.297,2.508,3.938,7.213,1.431,10.51
		C313.713,301.627,311.476,302.646,309.213,302.646z"/>
	<path style="fill:#A85759;" d="M157.262,194.478c-1.678,0-3.367-0.561-4.763-1.71l-17.513-14.422
		c-1.73-1.425-2.732-3.549-2.732-5.79s1.002-4.364,2.732-5.789l17.513-14.423c3.198-2.634,7.924-2.176,10.558,1.021
		c2.633,3.197,2.176,7.924-1.021,10.557l-10.483,8.634l10.483,8.632c3.198,2.634,3.655,7.36,1.022,10.558
		C161.573,193.546,159.426,194.478,157.262,194.478z"/>
	<path style="fill:#A85759;" d="M263.38,194.478c-2.164,0-4.311-0.932-5.794-2.732c-2.633-3.197-2.176-7.924,1.022-10.558
		l10.483-8.632l-10.483-8.634c-3.197-2.633-3.655-7.359-1.021-10.557c2.633-3.197,7.359-3.655,10.558-1.021l17.513,14.423
		c1.73,1.425,2.732,3.548,2.732,5.789s-1.002,4.365-2.732,5.79l-17.513,14.422C266.746,193.917,265.058,194.478,263.38,194.478z"/>
</g>
<circle style="fill:#FF5A51;" cx="373.68" cy="419" r="93"/>
<path style="fill:#FFBD2A;" d="M348.93,467.319l-23.57-23.57c-1.562-1.562-1.562-4.095,0-5.657l67.411-67.411
	c1.562-1.562,4.095-1.562,5.657,0l23.57,23.57c1.562,1.562,1.562,4.095,0,5.657l-67.411,67.411
	C353.025,468.881,350.492,468.881,348.93,467.319z"/>
<path style="fill:#FFD681;" d="M325.359,394.251l23.57-23.57c1.562-1.562,4.095-1.562,5.657,0l67.411,67.411
	c1.562,1.562,1.562,4.095,0,5.657l-23.57,23.57c-1.562,1.562-4.095,1.562-5.657,0l-67.411-67.411
	C323.798,398.346,323.798,395.813,325.359,394.251z"/>
<g>
</g>
<g>
</g>
<g>
</g>
<g>
</g>
<g>
</g>
<g>
</g>
<g>
</g>
<g>
</g>
<g>
</g>
<g>
</g>
<g>
</g>
<g>
</g>
<g>
</g>
<g>
</g>
<g>
</g>
</svg>
